{
    "asset" : {
        "generator" : "Khronos glTF Blender I/O v1.5.17",
        "version" : "2.0"
    },
    "scene" : 0,
    "scenes" : [
        {
            "name" : "Scene",
            "nodes" : [
                0
            ]
        }
    ],
    "nodes" : [
        {
            "mesh" : 0,
            "name" : "Tretyakov-Gallery-2752-Bust.001",
            "scale" : [
                0.2238832712173462,
                0.2238832712173462,
                0.2238832712173462
            ],
            "translation" : [
                -9.636571884155273,
                0,
                6.356634140014648
            ]
        }
    ],
    "materials" : [
        {
            "doubleSided" : true,
            "name" : "Material.006",
            "pbrMetallicRoughness" : {
                "baseColorTexture" : {
                    "index" : 0
                },
                "metallicFactor" : 0,
                "roughnessFactor" : 0.5
            }
        }
    ],
    "meshes" : [
        {
            "name" : "Tretyakov-Gallery-2752-Bust.001",
            "primitives" : [
                {
                    "attributes" : {
                        "POSITION" : 0,
                        "NORMAL" : 1,
                        "TEXCOORD_0" : 2
                    },
                    "indices" : 3,
                    "material" : 0
                }
            ]
        }
    ],
    "textures" : [
        {
            "sampler" : 0,
            "source" : 0
        }
    ],
    "images" : [
        {
            "bufferView" : 4,
            "mimeType" : "image/png",
            "name" : "petr_bake3"
        }
    ],
    "accessors" : [
        {
            "bufferView" : 0,
            "componentType" : 5126,
            "count" : 4198,
            "max" : [
                91.14822387695312,
                129.8791961669922,
                0.012069398537278175
            ],
            "min" : [
                -0.4023440480232239,
                0,
                -50.79824447631836
            ],
            "type" : "VEC3"
        },
        {
            "bufferView" : 1,
            "componentType" : 5126,
            "count" : 4198,
            "type" : "VEC3"
        },
        {
            "bufferView" : 2,
            "componentType" : 5126,
            "count" : 4198,
            "type" : "VEC2"
        },
        {
            "bufferView" : 3,
            "componentType" : 5123,
            "count" : 4200,
            "type" : "SCALAR"
        }
    ],
    "bufferViews" : [
        {
            "buffer" : 0,
            "byteLength" : 50376,
            "byteOffset" : 0
        },
        {
            "buffer" : 0,
            "byteLength" : 50376,
            "byteOffset" : 50376
        },
        {
            "buffer" : 0,
            "byteLength" : 33584,
            "byteOffset" : 100752
        },
        {
            "buffer" : 0,
            "byteLength" : 8400,
            "byteOffset" : 134336
        },
        {
            "buffer" : 0,
            "byteLength" : 2475587,
            "byteOffset" : 142736
        }
    ],
    "samplers" : [
        {
            "magFilter" : 9729,
            "minFilter" : 9987
        }
    ],
    "buffers" : [
        {
            "byteLength" : 2618324,
            "uri" : "data:application/octet-stream;base64,"
        }
    ]
}
